<svg width="44" height="44" viewBox="0 0 44 44" fill="none" xmlns="http://www.w3.org/2000/svg">
<path d="M42.69 25.8399V18.3199L37.05 17.8299C36.7179 16.6536 36.2516 15.5195 35.66 14.4499L39.3 10.1199L34 4.79991L29.68 8.43991C28.6125 7.84414 27.4778 7.37753 26.3 7.04991L25.81 1.40991H18.28L17.8 7.04991C16.6215 7.37571 15.4867 7.84241 14.42 8.43991L10.09 4.79991L4.76999 10.1199L8.41 14.4499C7.81103 15.5171 7.34108 16.6517 7.01001 17.8299L1.37 18.3199V25.8399L7.01001 26.3299C7.34108 27.5081 7.81103 28.6427 8.41 29.7099L4.73999 33.9999L10.06 39.3199L14.39 35.6799C15.4567 36.2774 16.5916 36.7441 17.77 37.0699L18.25 42.7099H25.78L26.27 37.0699C27.4478 36.7423 28.5825 36.2757 29.65 35.6799L33.97 39.3199L39.3 33.9999L35.66 29.6699C36.2516 28.6003 36.7179 27.4662 37.05 26.2899L42.69 25.8399ZM22.02 30.8399C20.289 30.8419 18.5963 30.3304 17.156 29.3701C15.7158 28.4099 14.5927 27.044 13.9289 25.4453C13.2651 23.8466 13.0904 22.087 13.4269 20.389C13.7634 18.691 14.596 17.131 15.8193 15.9063C17.0426 14.6816 18.6017 13.8472 20.2993 13.5088C21.9969 13.1703 23.7567 13.343 25.3562 14.005C26.9556 14.667 28.3228 15.7885 29.2847 17.2276C30.2466 18.6668 30.76 20.3589 30.76 22.0899C30.7587 23.239 30.5311 24.3765 30.0901 25.4376C29.6492 26.4987 29.0036 27.4626 28.1901 28.2742C27.3767 29.0858 26.4113 29.7292 25.3492 30.1677C24.2871 30.6062 23.1491 30.8312 22 30.8299L22.02 30.8399Z" stroke="#263238" stroke-linecap="round" stroke-linejoin="round"/>
</svg>
