<svg width="88" height="89" viewBox="0 0 88 89" fill="none" xmlns="http://www.w3.org/2000/svg">
<path d="M87 52.39V36.69L75.24 35.69C74.5525 33.2346 73.5792 30.8684 72.34 28.64L79.93 19.64L68.83 8.53996L59.83 16.13C57.6202 14.886 55.2704 13.9092 52.83 13.22L51.83 1.45996H36L35 13.22C32.5596 13.9092 30.2098 14.886 28 16.13L19 8.53996L7.90001 19.64L15.49 28.64C14.2508 30.8684 13.2775 33.2346 12.59 35.69L0.830017 36.69V52.39L12.59 53.39C13.2811 55.8281 14.2544 58.1774 15.49 60.39L7.90001 69.39L19 80.49L28 72.9C30.2098 74.1439 32.5596 75.1207 35 75.81L36 87.57H51.7L52.7 75.81C55.1567 75.1217 57.5231 74.1449 59.75 72.9L68.75 80.49L79.85 69.39L72.26 60.39C73.4956 58.1774 74.4689 55.8281 75.16 53.39L87 52.39ZM43.9 62.78C40.2925 62.78 36.766 61.7102 33.7664 59.706C30.7669 57.7017 28.429 54.853 27.0484 51.5201C25.6679 48.1872 25.3067 44.5197 26.0105 40.9815C26.7143 37.4433 28.4515 34.1932 31.0024 31.6423C33.5533 29.0914 36.8034 27.3542 40.3416 26.6504C43.8798 25.9466 47.5472 26.3079 50.8802 27.6884C54.2131 29.0689 57.0618 31.4068 59.066 34.4064C61.0703 37.4059 62.14 40.9324 62.14 44.54C62.1387 46.9383 61.6647 49.3128 60.7451 51.5278C59.8255 53.7428 58.4783 55.7548 56.7806 57.4488C55.0829 59.1428 53.0679 60.4856 50.8509 61.4003C48.6339 62.3151 46.2583 62.7839 43.86 62.78H43.9Z" stroke="#e5e5e5" stroke-linecap="round" stroke-linejoin="round"/>
</svg>
