<svg xmlns="http://www.w3.org/2000/svg" xmlns:xlink="http://www.w3.org/1999/xlink" xmlns:fi="http://pattern.flaticon.com/" x="0" y="0" width="700" height="350" viewBox="0 0 700 350"><rect x="0px" y="0px" width="100%" height="100%" opacity="0" fill="#000000"/><defs><g transform="matrix(0.028296820998275365 -0.15209540044065023 0.15209540044065023 0.028296820998275365 54.55269758423809 32.41984726448682)" id="L1_5"><path d="m167.289062 272.132812c-1.601562 0-3.214843-.550781-4.53125-1.671874l-45.296874-38.570313c-1.5625-1.332031-2.460938-3.277344-2.460938-5.332031 0-2.050782.902344-3.996094 2.460938-5.328125l45.296874-38.570313c2.941407-2.507812 7.359376-2.152344 9.867188.789063 2.503906 2.945312 2.152344 7.363281-.792969 9.867187l-39.035156 33.242188 39.035156 33.242187c2.945313 2.507813 3.296875 6.925781.792969 9.867188-1.386719 1.628906-3.355469 2.464843-5.335938 2.464843zm0 0" fill="#003049"/><path d="m256.710938 272.132812c-1.980469 0-3.949219-.835937-5.332032-2.464843-2.507812-2.941407-2.152344-7.359375.789063-9.867188l39.035156-33.242187-39.035156-33.242188c-2.941407-2.503906-3.296875-6.921875-.789063-9.867187 2.503906-2.941407 6.925782-3.296875 9.863282-.789063l45.296874 38.570313c1.5625 1.332031 2.460938 3.277343 2.460938 5.328125 0 2.054687-.898438 4-2.460938 5.332031l-45.296874 38.570313c-1.316407 1.121093-2.929688 1.671874-4.53125 1.671874zm0 0" fill="#003049"/><path d="m195.964844 301.0625c-.480469 0-.964844-.050781-1.453125-.152344-3.78125-.796875-6.203125-4.511718-5.40625-8.292968l28.230469-134.035157c.796874-3.78125 4.507812-6.203125 8.292968-5.40625 3.78125.796875 6.203125 4.507813 5.40625 8.292969l-28.230468 134.035156c-.695313 3.296875-3.601563 5.558594-6.839844 5.558594zm0 0" fill="#003049"/><path d="m377 374.085938h-330c-25.914062 0-47-21.082032-47-47v-280.085938c0-25.914062 21.085938-47 47-47h330c25.914062 0 47 21.085938 47 47v280.085938c0 25.917968-21.085938 47-47 47zm-330-360.085938c-18.195312 0-33 14.804688-33 33v280.085938c0 18.195312 14.804688 33 33 33h330c18.195312 0 33-14.804688 33-33v-280.085938c0-18.195312-14.804688-33-33-33zm0 0" fill="#003049"/><path d="m417 112.089844h-410c-3.867188 0-7-3.132813-7-7 0-3.863282 3.132812-7 7-7h410c3.867188 0 7 3.136718 7 7 0 3.867187-3.132812 7-7 7zm0 0" fill="#003049"/><path d="m119.601562 78.59375c-12.210937 0-22.152343-9.941406-22.152343-22.152344 0-12.214844 9.941406-22.152344 22.152343-22.152344 12.214844 0 22.152344 9.9375 22.152344 22.152344 0 12.210938-9.9375 22.152344-22.152344 22.152344zm0-30.304688c-4.492187 0-8.152343 3.65625-8.152343 8.152344s3.660156 8.152344 8.152343 8.152344c4.496094 0 8.152344-3.65625 8.152344-8.152344s-3.65625-8.152344-8.152344-8.152344zm0 0" fill="#003049"/><path d="m51.539062 78.378906c-12.214843 0-22.152343-9.9375-22.152343-22.152344 0-12.214843 9.9375-22.152343 22.152343-22.152343 12.214844 0 22.152344 9.9375 22.152344 22.152343 0 12.214844-9.9375 22.152344-22.152344 22.152344zm0-30.304687c-4.492187 0-8.152343 3.660156-8.152343 8.152343 0 4.496094 3.660156 8.152344 8.152343 8.152344 4.496094 0 8.152344-3.65625 8.152344-8.152344 0-4.492187-3.65625-8.152343-8.152344-8.152343zm0 0" fill="#003049"/><path d="m187.664062 78.804688c-12.210937 0-22.148437-9.9375-22.148437-22.152344 0-12.210938 9.9375-22.148438 22.148437-22.148438 12.214844 0 22.152344 9.9375 22.152344 22.148438 0 12.214844-9.9375 22.152344-22.152344 22.152344zm0-30.304688c-4.492187 0-8.148437 3.65625-8.148437 8.152344s3.65625 8.152344 8.148437 8.152344c4.496094 0 8.152344-3.65625 8.152344-8.152344s-3.65625-8.152344-8.152344-8.152344zm0 0" fill="#003049"/></g><g transform="matrix(0.1171875 0 0 0.1171875 165 236)" id="L1_7"><path d="M477.858,8.533H34.142C15.317,8.533,0,23.851,0,42.675v281.591c0,4.71,3.823,8.533,8.533,8.533h494.933    c4.71,0,8.533-3.823,8.533-8.533V42.675C512,23.851,496.683,8.533,477.858,8.533z M494.933,315.733H17.067V42.675    c0-9.421,7.663-17.075,17.075-17.075h443.716c9.412,0,17.075,7.654,17.075,17.075V315.733z" fill="#f77f00"/><path d="M503.467,315.733H8.533c-4.71,0-8.533,3.823-8.533,8.533v42.658c0,18.825,15.317,34.142,34.142,34.142h443.716    c18.825,0,34.142-15.317,34.142-34.142v-42.658C512,319.556,508.177,315.733,503.467,315.733z M494.933,366.925    c0,9.421-7.663,17.075-17.075,17.075H34.142c-9.412,0-17.075-7.654-17.075-17.075V332.8h477.867V366.925z" fill="#f77f00"/><path d="M281.6,349.867h-51.2c-4.71,0-8.533,3.823-8.533,8.533s3.823,8.533,8.533,8.533h51.2c4.71,0,8.533-3.823,8.533-8.533    S286.31,349.867,281.6,349.867z" fill="#f77f00"/><path d="M469.333,42.667H42.667c-4.71,0-8.533,3.823-8.533,8.533v273.067c0,4.71,3.823,8.533,8.533,8.533h426.667    c4.71,0,8.533-3.823,8.533-8.533V51.2C477.867,46.49,474.044,42.667,469.333,42.667z M460.8,315.733H51.2v-256h409.6V315.733z" fill="#f77f00"/><path d="M366.933,452.267H145.067c-14.114,0-25.6,11.486-25.6,25.6s11.486,25.6,25.6,25.6h221.867c14.114,0,25.6-11.486,25.6-25.6    S381.047,452.267,366.933,452.267z M366.933,486.4H145.067c-4.71,0-8.533-3.831-8.533-8.533s3.823-8.533,8.533-8.533h221.867    c4.71,0,8.533,3.831,8.533,8.533S371.644,486.4,366.933,486.4z" fill="#f77f00"/><path d="M349.867,452.267c-28.314,0-42.667-20.096-42.667-59.733c0-4.71-3.823-8.533-8.533-8.533h-85.333    c-4.71,0-8.533,3.823-8.533,8.533c0,39.637-14.353,59.733-42.667,59.733c-4.71,0-8.533,3.823-8.533,8.533    c0,4.71,3.823,8.533,8.533,8.533h187.733c4.71,0,8.533-3.823,8.533-8.533C358.4,456.09,354.577,452.267,349.867,452.267z     M203.699,452.267c10.505-11.639,16.691-28.971,17.937-51.2h68.736c1.237,22.229,7.424,39.561,17.937,51.2H203.699z" fill="#f77f00"/><path d="M407.757,259.959l-20.599-20.599l11.46-11.46c2.125-2.125,2.978-5.214,2.244-8.124c-0.734-2.91-2.944-5.214-5.82-6.084    l-85.333-25.6c-3.012-0.905-6.263-0.077-8.482,2.142c-2.227,2.219-3.046,5.478-2.142,8.482l25.6,85.333    c0.862,2.884,3.174,5.094,6.084,5.828c2.901,0.717,5.999-0.12,8.124-2.244l12.066-12.075l20.599,20.608    c1.596,1.604,3.772,2.5,6.033,2.5s4.437-0.896,6.033-2.5l24.132-24.141C411.093,268.689,411.093,263.296,407.757,259.959z     M377.591,278.067l-18.756-18.765c-2.176-2.176-5.026-3.26-7.876-3.26c-2.859,0-5.709,1.092-7.876,3.251l-6.161,6.161    l-16.939-56.465l56.465,16.939l-6.605,6.605c-1.818,1.826-2.816,4.25-2.816,6.827c0,2.586,1.007,5.026,2.833,6.835l19.797,19.797    L377.591,278.067z" fill="#f77f00"/><path d="M358.4,76.8H119.467c-4.71,0-8.533,3.823-8.533,8.533V128c0,4.71,3.823,8.533,8.533,8.533H358.4    c4.71,0,8.533-3.823,8.533-8.533V85.333C366.933,80.623,363.11,76.8,358.4,76.8z M349.867,119.467H128v-25.6h221.867V119.467z" fill="#f77f00"/><path d="M221.867,170.667H153.6c-4.71,0-8.533,3.823-8.533,8.533v34.133c0,4.71,3.823,8.533,8.533,8.533h68.267    c4.71,0,8.533-3.823,8.533-8.533V179.2C230.4,174.49,226.577,170.667,221.867,170.667z M213.333,204.8h-51.2v-17.067h51.2V204.8z" fill="#f77f00"/><path d="M358.4,76.8H119.467c-4.71,0-8.533,3.823-8.533,8.533v162.133c0,4.71,3.823,8.533,8.533,8.533h203.145    c2.705,0,5.239-1.271,6.844-3.439c1.613-2.167,2.108-4.966,1.331-7.552l-10.803-36.019l35.968,10.795    c2.586,0.777,5.385,0.282,7.543-1.331c2.167-1.604,3.439-4.147,3.439-6.844V85.333C366.933,80.623,363.11,76.8,358.4,76.8z     M349.867,200.141L309.7,188.092c-3.012-0.905-6.263-0.077-8.482,2.142c-2.227,2.227-3.046,5.478-2.142,8.491l12.066,40.209H128    V93.867h221.867V200.141z" fill="#f77f00"/></g><g transform="matrix(0.1132475703592035 0.03314563009994396 -0.03314563009994396 0.1132475703592035 177.49390329362956 54.52334068245825)" id="L1_8"><path d="m316 346c-5.519531 0-10 4.480469-10 10s4.480469 10 10 10 10-4.480469 10-10-4.480469-10-10-10zm0 0" fill="#d62828"/><path d="m462 0h-412c-27.570312 0-50 22.429688-50 50v306c0 27.570312 22.429688 50 50 50h156v46h-10c-13.351562 0-25.902344 5.203125-35.351562 14.648438-9.445313 9.449218-14.648438 22-14.648438 35.351562 0 5.523438 4.476562 10 10 10h200c5.523438 0 10-4.476562 10-10 0-27.570312-22.429688-50-50-50h-10v-46h156c27.570312 0 50-22.429688 50-50v-306c0-27.570312-22.429688-50-50-50zm-412 20h412c16.542969 0 30 13.457031 30 30v256h-46v-230c0-5.523438-4.476562-10-10-10h-80c-5.523438 0-10 4.476562-10 10v230h-50.054688c-.105468-10.34375-.375-20.539062-.804687-30.429688-1.75-40.726562-5.738281-68.007812-7.8125-80.007812 20.632813-15.191406 26.265625-43.347656 13.652344-65.222656l-34.660157-60.03125c-1.789062-3.09375-5.089843-5-8.660156-5-3.574218 0-6.875 1.90625-8.660156 5l-34.675781 60.035156c-11.890625 20.625-7.675781 47.339844 11.003906 63.105469-2.164063 11.964843-6.53125 40.222656-8.429687 82.101562-.449219 9.996094-.734376 20.199219-.84375 30.449219h-50.054688v-150c0-1.585938-.375-3.03125-.988281-4.316406-.027344-.050782-.042969-.105469-.066407-.15625l-40-80c-1.695312-3.386719-5.15625-5.527344-8.945312-5.527344s-7.25 2.140625-8.945312 5.527344l-40 80c-.023438.050781-.039063.105468-.0625.15625-.625 1.296875-.992188 2.765625-.992188 4.316406v150h-46v-256c0-16.542969 13.457031-30 30-30zm316 286v-220h60v20h-10c-5.523438 0-10 4.476562-10 10s4.476562 10 10 10h10v30h-10c-5.523438 0-10 4.476562-10 10s4.476562 10 10 10h10v30h-10c-5.523438 0-10 4.476562-10 10s4.476562 10 10 10h10v40h-10c-5.523438 0-10 4.476562-10 10s4.476562 10 10 10h10v20zm-108.339844-100.691406c3.632813 0 7.25-.417969 10.789063-1.199219 1.855469 11.894531 4.582031 32.941406 6.195312 61.890625h-37.222656c1.691406-28.929688 4.546875-50.304688 6.519531-62.601562 4.429688 1.261718 9.042969 1.910156 13.71875 1.910156zm0-20c-22.855468 0-37.59375-24.875-26.011718-44.96875l26.011718-45.03125 25.996094 45.027344c11.539062 20.011718-2.996094 44.972656-25.996094 44.972656zm-21.15625 100.691406h39.019532c.210937 6.570312.355468 13.253906.425781 20h-39.894531c.074218-6.703125.226562-13.386719.449218-20zm-110.503906 20v-140h20v140zm-40 0v-140h20v140zm6.179688-160 23.820312-47.640625 23.820312 47.640625zm252.105468 346h-176.582031c1.46875-4.167969 3.867187-7.988281 7.085937-11.210938 5.671876-5.667968 13.203126-8.789062 21.210938-8.789062h120c13.039062 0 24.160156 8.359375 28.285156 20zm-58.285156-40h-60v-46h60zm176-66h-412c-16.542969 0-30-13.457031-30-30v-30h472v30c0 16.542969-13.457031 30-30 30zm0 0" fill="#d62828"/><path d="m276 346h-60c-5.523438 0-10 4.476562-10 10s4.476562 10 10 10h60c5.523438 0 10-4.476562 10-10s-4.476562-10-10-10zm0 0" fill="#d62828"/></g><g transform="matrix(0.12395526544657091 0.011805263168205725 -0.011805263168205725 0.12395526544657091 67.07662275319588 126.40934147080701)" id="L1_9"><path d="M423.239,120.119c-5.838-0.005-11.642,0.888-17.208,2.648c0.528-4.195,0.795-8.42,0.8-12.648    C405.792,48.272,354.813-1.023,292.965,0.016c-45.131,0.758-85.397,28.534-102.134,70.455    C158.463,50.4,115.953,60.37,95.883,92.738c-6.534,10.537-10.106,22.641-10.34,35.037c-8.714-5.031-18.602-7.673-28.664-7.656    c-30.928,0-56,25.072-56,56c0,30.928,25.072,56,56,56c4.418,0,8-3.582,8-8s-3.582-8-8-8    c-22.089-0.359-39.704-18.556-39.345-40.645c0.359-22.089,18.556-39.704,40.645-39.345c13.446,0.219,25.882,7.179,33.1,18.525    c2.42,3.697,7.378,4.732,11.075,2.313c3.195-2.091,4.467-6.148,3.037-9.689c-2.519-6.076-3.834-12.583-3.872-19.16    c0.321-28.992,24.048-52.253,53.04-52c12.918,0.051,25.38,4.78,35.08,13.312c3.33,2.904,8.384,2.558,11.287-0.772    c0.787-0.902,1.361-1.97,1.681-3.124c14.638-50.936,67.796-80.361,118.731-65.723c40.442,11.622,68.595,48.236,69.437,90.307    c-0.034,8.386-1.205,16.729-3.48,24.8c-1.183,4.257,1.308,8.667,5.565,9.85c2.303,0.64,4.772,0.217,6.731-1.154    c6.92-4.88,15.181-7.498,23.648-7.496c22.091,0,40,17.909,40,40s-17.909,40-40,40c-4.418,0-8,3.582-8,8s3.582,8,8,8    c30.928,0,56-25.072,56-56C479.239,145.191,454.167,120.119,423.239,120.119z" fill="#fcbf49"/><path d="M376.039,304.119h-272c-13.255,0-24,10.745-24,24v32c0,13.255,10.745,24,24,24h272c13.255,0,24-10.745,24-24v-32    C400.039,314.864,389.294,304.119,376.039,304.119z M384.039,360.119c0,4.418-3.582,8-8,8h-272c-4.418,0-8-3.582-8-8v-32    c0-4.418,3.582-8,8-8h272c4.418,0,8,3.582,8,8V360.119z" fill="#fcbf49"/><path d="M353.847,328.615c-8.525,0.053-15.408,6.978-15.408,15.503c0.04,8.584,7.016,15.517,15.6,15.504    c8.563-0.053,15.461-7.037,15.408-15.6C369.394,335.46,362.41,328.562,353.847,328.615z M354.039,344.623    c-0.24,0-0.4-0.264-0.4-0.504l0.4-0.496V344.623z" fill="#fcbf49"/><path d="M270.439,336.119h-152c-4.418,0-8,3.582-8,8s3.582,8,8,8h152c4.418,0,8-3.582,8-8S274.858,336.119,270.439,336.119z" fill="#fcbf49"/><path d="M319.839,336.119h-21.28c-4.418,0-8,3.582-8,8s3.582,8,8,8h21.28c4.418,0,8-3.582,8-8S324.258,336.119,319.839,336.119z" fill="#fcbf49"/><path d="M376.039,400.119h-272c-13.255,0-24,10.745-24,24v32c0,13.255,10.745,24,24,24h272c13.255,0,24-10.745,24-24v-32    C400.039,410.864,389.294,400.119,376.039,400.119z M384.039,456.119c0,4.418-3.582,8-8,8h-272c-4.418,0-8-3.582-8-8v-32    c0-4.418,3.582-8,8-8h272c4.418,0,8,3.582,8,8V456.119z" fill="#fcbf49"/><path d="M353.847,424.615c-8.525,0.053-15.408,6.978-15.408,15.503c0.04,8.584,7.016,15.517,15.6,15.504    c8.563-0.053,15.461-7.037,15.408-15.6C369.394,431.46,362.41,424.562,353.847,424.615z M354.039,440.623    c-0.24,0-0.4-0.264-0.4-0.504l0.4-0.496V440.623z" fill="#fcbf49"/><path d="M270.439,432.119h-152c-4.418,0-8,3.582-8,8s3.582,8,8,8h152c4.418,0,8-3.582,8-8S274.858,432.119,270.439,432.119z" fill="#fcbf49"/><path d="M319.839,432.119h-21.28c-4.418,0-8,3.582-8,8s3.582,8,8,8h21.28c4.418,0,8-3.582,8-8S324.258,432.119,319.839,432.119z" fill="#fcbf49"/><path d="M376.039,208.119h-272c-13.255,0-24,10.745-24,24v32c0,13.255,10.745,24,24,24h272c13.255,0,24-10.745,24-24v-32    C400.039,218.864,389.294,208.119,376.039,208.119z M384.039,264.119c0,4.418-3.582,8-8,8h-272c-4.418,0-8-3.582-8-8v-32    c0-4.418,3.582-8,8-8h272c4.418,0,8,3.582,8,8V264.119z" fill="#fcbf49"/><path d="M366.935,245.935c-1.542-8.499-9.681-14.139-18.18-12.597c-4.027,0.73-7.607,3.01-9.972,6.349    c-2.375,3.352-3.303,7.517-2.576,11.56c1.346,7.447,7.825,12.865,15.392,12.872c0.874-0.001,1.746-0.073,2.608-0.216    c4.108-0.678,7.769-2.986,10.152-6.4C366.742,254.151,367.671,249.98,366.935,245.935z M351.191,248.751l0.36-0.632l0.04,1    C351.231,249.119,351.207,248.919,351.191,248.751z" fill="#fcbf49"/><path d="M268.839,240.119h-152c-4.418,0-8,3.582-8,8s3.582,8,8,8h152c4.418,0,8-3.582,8-8S273.258,240.119,268.839,240.119z" fill="#fcbf49"/><path d="M314.727,240.119h-21.28c-4.418,0-8,3.582-8,8s3.582,8,8,8h21.28c4.418,0,8-3.582,8-8S319.146,240.119,314.727,240.119z" fill="#fcbf49"/><path d="M205.695,130.463l-24-24c-3.124-3.123-8.188-3.123-11.312,0l-24,24c-3.069,3.178-2.981,8.243,0.197,11.312    c3.1,2.994,8.015,2.994,11.115,0l10.344-10.344v52.688c0,4.418,3.582,8,8,8s8-3.582,8-8v-52.688l10.344,10.344    c3.178,3.069,8.243,2.981,11.312-0.197C208.689,138.478,208.689,133.563,205.695,130.463z" fill="#fcbf49"/><path d="M333.499,154.463c-3.1-2.994-8.015-2.994-11.116,0l-10.344,10.344v-52.688c0-4.418-3.582-8-8-8s-8,3.582-8,8v52.688    l-10.344-10.344c-3.178-3.07-8.242-2.982-11.312,0.196c-2.994,3.1-2.994,8.015,0,11.116l24,24c3.124,3.123,8.188,3.123,11.312,0    l24-24C336.765,162.597,336.677,157.532,333.499,154.463z" fill="#fcbf49"/></g><g transform="matrix(0.1171875 0 0 0.1171875 261 -22.000000171661384)" id="L1_10"><path d="m371.938 417.317h-96.417l-10.088-10.088 25.315-25.315c2.781-2.782 3.942-6.738 3.104-10.582-.838-3.843-3.539-6.956-7.224-8.327l-132.139-49.178c-4.638-1.727-9.697-.626-13.198 2.877-3.501 3.501-4.603 8.559-2.876 13.198l32.533 87.415h-132.482c-12.94 0-23.466-10.526-23.466-23.465v-161.792c0-4.143-3.357-7.5-7.5-7.5s-7.5 3.357-7.5 7.5v161.792c0 21.21 17.256 38.466 38.466 38.466h138.065l11.061 29.721c1.371 3.688 4.485 6.389 8.329 7.227 3.843.839 7.801-.323 10.58-3.104l25.315-25.314 25.77 25.77c2.437 2.436 5.637 3.652 8.837 3.652 3.201 0 6.402-1.218 8.839-3.653l15.941-15.94c4.872-4.874 4.871-12.804-.001-17.677 0 0 0 0-.001 0l-.68-.68h81.416c4.143 0 7.5-3.357 7.5-7.5s-3.357-7.503-7.499-7.503zm-105.514 36.922-29.304-29.304c-1.465-1.464-3.384-2.196-5.304-2.196-1.919 0-3.839.732-5.304 2.196l-26.764 26.764-45.37-121.908 121.907 45.371-26.764 26.764c-2.929 2.93-2.929 7.678.001 10.607l29.304 29.303z" fill="#ecf5ce"/><path d="m473.534 41.732h-26.222c-4.143 0-7.5 3.357-7.5 7.5s3.357 7.5 7.5 7.5h26.222c12.939 0 23.466 10.526 23.466 23.466v46.991h-482v-46.991c0-12.939 10.526-23.466 23.466-23.466h374.159c4.143 0 7.5-3.357 7.5-7.5s-3.357-7.5-7.5-7.5h-374.159c-21.21 0-38.466 17.256-38.466 38.466v118.112c0 4.143 3.357 7.5 7.5 7.5s7.5-3.357 7.5-7.5v-56.12h482v251.662c0 12.939-10.526 23.466-23.466 23.466h-65.659c-4.143 0-7.5 3.357-7.5 7.5s3.357 7.5 7.5 7.5h65.659c21.21 0 38.466-17.256 38.466-38.466v-313.654c0-21.21-17.256-38.466-38.466-38.466z" fill="#ecf5ce"/><path d="m49.698 91.961c0 7.673 6.22 13.893 13.892 13.893s13.892-6.22 13.892-13.893-6.22-13.892-13.892-13.892-13.892 6.219-13.892 13.892z" fill="#ecf5ce"/><path d="m92.434 91.961c0 7.673 6.22 13.893 13.892 13.893s13.892-6.22 13.892-13.893-6.22-13.892-13.892-13.892-13.892 6.219-13.892 13.892z" fill="#ecf5ce"/><path d="m135.17 91.961c0 7.673 6.22 13.893 13.892 13.893s13.892-6.22 13.892-13.893-6.22-13.892-13.892-13.892-13.892 6.219-13.892 13.892z" fill="#ecf5ce"/><path d="m91.808 307.31h.043c3.17 0 6-1.994 7.064-4.982l18.578-52.132 17.752 52.037c1.032 3.025 3.87 5.064 7.067 5.078h.031c3.185 0 6.023-2.012 7.078-5.02l25.184-71.846c1.37-3.908-.688-8.188-4.598-9.559-3.906-1.37-8.188.688-9.559 4.598l-18.01 51.379-17.692-51.865c-2.006-6.591-12.072-6.652-14.163-.096l-18.604 52.205-17.696-51.497c-1.346-3.918-5.612-6.005-9.53-4.655-3.917 1.346-6.002 5.613-4.655 9.53l24.66 71.762c1.035 3.014 3.863 5.044 7.05 5.063z" fill="#ecf5ce"/><path d="m230.575 307.31h.043c3.17 0 6-1.994 7.064-4.982l18.578-52.132 17.752 52.037c1.032 3.025 3.87 5.064 7.067 5.078h.031c3.185 0 6.023-2.012 7.078-5.02l25.184-71.846c1.37-3.908-.688-8.188-4.598-9.559-3.906-1.37-8.188.688-9.559 4.598l-18.01 51.379-17.692-51.865c-2.007-6.592-12.072-6.652-14.163-.096l-18.604 52.205-17.696-51.496c-1.346-3.918-5.614-6.005-9.53-4.655-3.917 1.346-6.002 5.613-4.655 9.53l24.66 71.762c1.036 3.013 3.864 5.043 7.05 5.062z" fill="#ecf5ce"/><path d="m367.092 307.31h.042c3.17 0 6-1.994 7.064-4.982l18.578-52.132 17.752 52.037c1.032 3.025 3.87 5.064 7.067 5.078h.031c3.185 0 6.023-2.012 7.078-5.02l25.183-71.846c1.37-3.908-.688-8.188-4.598-9.559-3.907-1.37-8.188.688-9.559 4.598l-18.009 51.379-17.692-51.865c-2.005-6.591-12.073-6.652-14.163-.096l-18.604 52.205-17.697-51.496c-1.346-3.917-5.607-6.003-9.53-4.655-3.917 1.346-6.002 5.613-4.655 9.53l24.661 71.762c1.036 3.013 3.863 5.043 7.051 5.062z" fill="#ecf5ce"/></g><path d="M254,0C146.7,0,0,81.1,0,254c0,168.5,141.1,254,254,254c193.7,0,254-169.7,254-254C508,129.6,412.8,0,254,0z M195.1,23.9    c-26.5,22.6-48.5,60-62.7,106.4c-18.4-10.9-35.3-24.4-50.3-40.1C113.1,57.7,152.3,34.9,195.1,23.9z M71.2,102.4    c16.8,17.5,35.9,32.4,56.7,44.2c-7.8,30.3-12.4,63.9-13,99.2H16.6C18.4,193.1,37.6,142.8,71.2,102.4z M71.2,405.6    c-33.7-40.4-52.8-90.7-54.6-143.4h98.3c0.6,35.4,5.2,68.9,13,99.2C107.2,373.3,88.1,388.1,71.2,405.6z M82.1,417.9    c15-15.7,31.9-29.2,50.3-40.1c14.2,46.3,36.2,83.8,62.7,106.4C152.3,473.1,113.1,450.3,82.1,417.9z M245.8,491    c-42.6-5.4-79.3-53-99.1-121.2c30.6-15.5,64.4-24.2,99.1-25.5V491z M245.8,328c-36.2,1.2-71.4,10.1-103.3,25.7    c-6.7-28-10.7-58.9-11.3-91.5h114.6V328z M245.8,245.8H131.2c0.6-32.6,4.6-63.5,11.3-91.5c32,15.6,67.2,24.5,103.3,25.7V245.8z     M245.8,163.7c-34.8-1.2-68.5-10-99.1-25.5C166.5,69.9,203.2,22.4,245.8,17V163.7z M436.8,102.4c33.6,40.4,52.8,90.7,54.6,143.4    h-98.2c-0.6-35.4-5.2-68.9-13-99.2C400.9,134.7,420,119.9,436.8,102.4z M425.9,90.1c-15,15.7-31.9,29.2-50.3,40.1    c-14.2-46.3-36.2-83.7-62.7-106.4C355.7,34.9,394.9,57.7,425.9,90.1z M262.2,17c42.6,5.4,79.3,53,99.1,121.2    c-30.6,15.5-64.3,24.2-99.1,25.5V17z M262.2,180c36.2-1.2,71.4-10.1,103.3-25.7c6.7,28,10.7,58.9,11.3,91.5H262.2V180z     M262.2,262.2h114.6c-0.6,32.6-4.6,63.5-11.3,91.5c-31.9-15.7-67.1-24.6-103.3-25.7V262.2z M262.2,491V344.3    c34.8,1.2,68.5,10,99.1,25.5C341.5,438.1,304.8,485.6,262.2,491z M312.9,484.1c26.5-22.6,48.5-60,62.7-106.4    c18.4,10.9,35.3,24.4,50.3,40.1C394.9,450.3,355.7,473.1,312.9,484.1z M436.8,405.6c-16.8-17.5-35.9-32.3-56.6-44.2    c7.8-30.3,12.4-63.9,13-99.2h98.2C489.6,314.9,470.4,365.2,436.8,405.6z" transform="matrix(0.11811023950576782 0 0 0.11811023950576782 266 143)" id="L1_11" fill="#ecf5ce"/><g transform="matrix(0.1171875 0 0 0.1171875 -13 71.9999997138977)" id="L1_12"><path d="M141.087,103.583c-1.717,1.487-2.965,3.254-3.722,5.271c-0.535,1.444-1.253,3.781-2.115,6.942l-8.693,29.473     l-7.566-26.464c-1.217-4.14-2.174-7.047-2.856-8.729c-0.889-2.2-2.404-4.222-4.5-6.017c-4.674-3.988-13.759-4.035-18.488,0.004     c-2.111,1.807-3.598,3.805-4.413,5.935c-0.608,1.572-1.545,4.511-2.81,8.838l-7.532,26.358l-8.573-29.382     c-1.373-4.73-2.685-8.065-4.015-10.2c-1.303-2.088-4.066-4.573-9.825-4.573c-3.418,0-6.478,1.249-8.846,3.621     c-2.365,2.365-3.613,5.252-3.613,8.351c0,2.174,0.784,5.33,2.517,10.161l15.472,45.783l1.76,4.971     c0.843,2.345,1.85,4.433,2.996,6.204c1.339,2.068,3.051,3.691,5.088,4.819c2.06,1.147,4.515,1.729,7.289,1.729     c6.927,0,10.348-3.177,11.999-5.842c1.853-2.985,3.492-7.165,4.999-12.733l6.782-23.892l6.997,23.873     c0.975,3.5,1.877,6.345,2.704,8.526c1.026,2.716,2.634,5.041,4.78,6.914c2.399,2.091,5.58,3.153,9.451,3.153     c3.746,0,6.832-0.995,9.182-2.965c2.084-1.752,3.64-3.8,4.628-6.091c0.768-1.779,1.858-4.663,3.262-8.69l15.573-45.67     c1.619-4.444,2.407-7.801,2.407-10.251c0-3.231-1.303-6.173-3.769-8.502C152.802,99.946,145.017,100.172,141.087,103.583z" fill="#e5e5e5"/><path d="M271.889,103.583c-1.717,1.487-2.965,3.254-3.722,5.271c-0.535,1.444-1.253,3.781-2.115,6.942l-8.693,29.473     l-7.566-26.464c-1.217-4.14-2.174-7.047-2.856-8.729c-0.889-2.2-2.404-4.222-4.5-6.017c-4.674-3.988-13.759-4.035-18.488,0.004     c-2.111,1.807-3.598,3.805-4.413,5.935c-0.609,1.572-1.545,4.511-2.81,8.838l-7.53,26.358l-8.573-29.382     c-1.373-4.73-2.685-8.065-4.015-10.2c-1.303-2.088-4.066-4.573-9.825-4.573c-3.418,0-6.478,1.249-8.846,3.621     c-2.365,2.365-3.613,5.252-3.613,8.351c0,2.174,0.784,5.33,2.517,10.161l15.472,45.783l1.76,4.971     c0.843,2.345,1.85,4.433,2.996,6.204c1.339,2.068,3.051,3.691,5.088,4.819c2.06,1.147,4.515,1.729,7.289,1.729     c6.927,0,10.348-3.177,11.999-5.842c1.853-2.985,3.492-7.165,4.999-12.733l6.782-23.892l6.997,23.873     c0.975,3.5,1.877,6.345,2.704,8.526c1.026,2.716,2.634,5.041,4.78,6.914c2.399,2.091,5.58,3.153,9.451,3.153     c3.746,0,6.832-0.995,9.182-2.965c2.084-1.752,3.64-3.8,4.627-6.091c0.768-1.779,1.858-4.663,3.262-8.69l15.573-45.67     c1.619-4.444,2.407-7.801,2.407-10.251c0-3.231-1.303-6.173-3.769-8.502C283.607,99.946,275.818,100.172,271.889,103.583z" fill="#e5e5e5"/><path d="M402.687,103.583c-1.717,1.487-2.965,3.254-3.722,5.271c-0.535,1.444-1.253,3.781-2.115,6.942l-8.693,29.473     l-7.566-26.464c-1.217-4.14-2.174-7.047-2.856-8.729c-0.889-2.2-2.404-4.222-4.5-6.017c-4.674-3.988-13.759-4.035-18.488,0.004     c-2.111,1.807-3.598,3.805-4.413,5.935c-0.608,1.572-1.545,4.511-2.81,8.838l-7.53,26.358l-8.573-29.382     c-1.373-4.73-2.685-8.065-4.015-10.2c-1.303-2.088-4.066-4.573-9.825-4.573c-3.418,0-6.478,1.249-8.846,3.621     c-2.365,2.365-3.613,5.252-3.613,8.351c0,2.174,0.784,5.33,2.517,10.161l15.471,45.783l1.76,4.971     c0.843,2.345,1.85,4.433,2.996,6.204c1.339,2.068,3.052,3.691,5.089,4.819c2.06,1.147,4.515,1.729,7.289,1.729     c6.927,0,10.348-3.177,11.999-5.842c1.853-2.985,3.492-7.165,4.999-12.733l6.782-23.892l6.997,23.873     c0.975,3.5,1.877,6.345,2.704,8.526c1.026,2.716,2.634,5.041,4.78,6.914c2.399,2.091,5.58,3.153,9.451,3.153     c3.746,0,6.832-0.995,9.182-2.965c2.084-1.752,3.64-3.8,4.627-6.091c0.768-1.779,1.858-4.663,3.262-8.69l15.573-45.67     c1.619-4.444,2.407-7.801,2.407-10.251c0-3.231-1.303-6.173-3.769-8.502C414.401,99.946,406.617,100.172,402.687,103.583z" fill="#e5e5e5"/><path d="M436.077,161.911c-2.751,2.817-4.144,6.227-4.144,10.138c0,4.534,1.51,8.171,4.487,10.825     c2.845,2.525,6.255,3.805,10.141,3.805c3.808,0,7.172-1.303,9.998-3.875c2.934-2.669,4.421-6.286,4.421-10.754     c0-3.996-1.452-7.437-4.316-10.236C450.991,156.273,441.56,156.3,436.077,161.911z" fill="#e5e5e5"/><path d="M469.635,30.45L42.365,30.458C19.003,30.458,0,49.461,0,72.823v132.043c0,23.362,19.007,42.369,42.369,42.369h107.037     l32.309,176.565c1.135,6.196,5.803,11.148,11.921,12.647c6.118,1.499,12.545-0.734,16.416-5.709l29.956-38.506l59.441,82.666     c3.125,4.343,8.023,6.657,12.99,6.653c3.231,0,6.496-0.975,9.318-3.004l43.886-31.556c3.441-2.474,5.759-6.216,6.442-10.399     c0.687-4.183-0.32-8.468-2.794-11.909l-59.444-82.666l46.041-16.135c5.943-2.084,10.11-7.465,10.641-13.743     c0.527-6.279-2.681-12.28-8.194-15.328l-89.685-49.58h200.984c23.362,0,42.365-19.007,42.365-42.369V72.819     C512,49.457,492.997,30.45,469.635,30.45z M311.635,307.518l-32.523,11.397c-4.753,1.667-8.444,5.478-9.958,10.282     c-1.514,4.803-0.672,10.044,2.267,14.134l62.585,87.036l-17.934,12.893l-62.582-87.036c-2.942-4.089-7.641-6.555-12.678-6.649     c-0.101-0.004-0.199-0.004-0.3-0.004c-4.924,0-9.584,2.275-12.615,6.17l-21.162,27.201l-27.162-148.428L311.635,307.518z      M480.034,204.861c0,5.736-4.666,10.403-10.399,10.403H210.826l-45.311-25.047c-5.4-2.989-12.046-2.598-17.063,1.011     c-5.014,3.606-7.504,9.779-6.392,15.854l1.499,8.186H42.369c-5.736,0-10.403-4.666-10.403-10.403V72.823     c0-5.736,4.666-10.399,10.399-10.399l427.27-0.008c5.733,0,10.399,4.666,10.399,10.403V204.861z" fill="#e5e5e5"/></g><g transform="matrix(1.193996814434498 -0.49981262822577477 0.49981262822577477 1.193996814434498 -25.971672623076344 241.2343415212555)" id="L1_15"><path d="M55,45.006V41a5.006,5.006,0,0,0-5-5H41.582a28.187,28.187,0,0,0,2.228-5.367l3.8-3.041a3.694,3.694,0,0,0-2.188-6.579l2.228-6.126A10.35,10.35,0,0,0,37.924,1h-8.49A33.865,33.865,0,0,0,11.47,6.152a1,1,0,0,0,.214,1.8l2.411.8a2.568,2.568,0,0,1,1.572,3.389,4.568,4.568,0,0,0,.155,3.739L18.4,21.031a3.689,3.689,0,0,0-2.008,6.561l3.8,3.041A28.187,28.187,0,0,0,22.418,36H14a5.006,5.006,0,0,0-5,5v4.006A13.018,13.018,0,0,0,1,57v5a1,1,0,0,0,1,1H62a1,1,0,0,0,1-1V57A13.018,13.018,0,0,0,55,45.006ZM40,21H34a1,1,0,0,0-1,1v1H31V22a1,1,0,0,0-1-1H21V19.535l6.242-4.161A8.155,8.155,0,0,1,31.78,14a10.212,10.212,0,0,0,6.359-2.231l1.634-1.307,1.715,2.574A8.969,8.969,0,0,1,43,18.028V21Zm-1,2v3a1,1,0,0,1-1,1H36a1,1,0,0,1-1-1V23ZM29,23v3a1,1,0,0,1-1,1H26a1,1,0,0,1-1-1V23Zm18,1.7a1.694,1.694,0,0,1-.638,1.328l-1.813,1.45A28.141,28.141,0,0,0,44.984,23H45.3A1.7,1.7,0,0,1,47,24.7ZM17.523,12.884a4.568,4.568,0,0,0-2.795-6.029l-.306-.1A31.863,31.863,0,0,1,29.434,3h8.49a8.35,8.35,0,0,1,7.847,11.2l-.869,2.39a10.966,10.966,0,0,0-1.75-4.668l-2.32-3.481a1,1,0,0,0-.679-.433,1.01,1.01,0,0,0-.778.207L36.89,10.208A8.215,8.215,0,0,1,31.78,12a10.152,10.152,0,0,0-5.648,1.71l-6.687,4.458a.992.992,0,0,0-.17.146l-1.664-3.329A2.567,2.567,0,0,1,17.523,12.884Zm.116,13.146A1.7,1.7,0,0,1,18.7,23h.314a28.141,28.141,0,0,0,.435,4.48ZM21.016,23H23v3a3,3,0,0,0,3,3h2a3,3,0,0,0,3-3V25h2v1a3,3,0,0,0,3,3h2a3,3,0,0,0,3-3V23h1.984a26.183,26.183,0,0,1-3.711,13H24.727A26.183,26.183,0,0,1,21.016,23ZM14,38H50a3,3,0,0,1,3,3V61H11V41A3,3,0,0,1,14,38ZM3,57a11.016,11.016,0,0,1,6-9.793V61H3Zm58,4H55V47.207A11.017,11.017,0,0,1,61,57Z" fill="#003049"/><path d="M32,58a4,4,0,1,0-4-4A4,4,0,0,0,32,58Zm0-6a2,2,0,1,1-2,2A2,2,0,0,1,32,52Z" fill="#003049"/><path d="M25.293,48.707l1.414-1.414L23.414,44l3.293-3.293-1.414-1.414-4,4a1,1,0,0,0,0,1.414Z" fill="#003049"/><path d="M38.707,48.707l4-4a1,1,0,0,0,0-1.414l-4-4-1.414,1.414L40.586,44l-3.293,3.293Z" fill="#003049"/><rect x="27px" y="43px" width="10px" height="2px" transform="matrix(0.6001550140852205 -0.7998837159664952 0.7998837159664952 0.6001550140852205 -22.399999618530273 43.18899917602539)" fill="#003049"/></g></defs><g fi:class="KUsePattern"><pattern id="pattern_L1_5" width="350" height="350" patternUnits="userSpaceOnUse"><use xlink:href="#L1_5" x="-350" y="-350"/><use xlink:href="#L1_5" x="0" y="-350"/><use xlink:href="#L1_5" x="350" y="-350"/><use xlink:href="#L1_5" x="-350" y="0"/><use xlink:href="#L1_5" x="0" y="0"/><use xlink:href="#L1_5" x="350" y="0"/><use xlink:href="#L1_5" x="-350" y="350"/><use xlink:href="#L1_5" x="0" y="350"/><use xlink:href="#L1_5" x="350" y="350"/></pattern><rect x="0" y="0" width="100%" height="100%" fill="url(#pattern_L1_5)"/></g><g fi:class="KUsePattern"><pattern id="pattern_L1_7" width="350" height="350" patternUnits="userSpaceOnUse"><use xlink:href="#L1_7" x="-350" y="-350"/><use xlink:href="#L1_7" x="0" y="-350"/><use xlink:href="#L1_7" x="350" y="-350"/><use xlink:href="#L1_7" x="-350" y="0"/><use xlink:href="#L1_7" x="0" y="0"/><use xlink:href="#L1_7" x="350" y="0"/><use xlink:href="#L1_7" x="-350" y="350"/><use xlink:href="#L1_7" x="0" y="350"/><use xlink:href="#L1_7" x="350" y="350"/></pattern><rect x="0" y="0" width="100%" height="100%" fill="url(#pattern_L1_7)"/></g><g fi:class="KUsePattern"><pattern id="pattern_L1_8" width="350" height="350" patternUnits="userSpaceOnUse"><use xlink:href="#L1_8" x="-350" y="-350"/><use xlink:href="#L1_8" x="0" y="-350"/><use xlink:href="#L1_8" x="350" y="-350"/><use xlink:href="#L1_8" x="-350" y="0"/><use xlink:href="#L1_8" x="0" y="0"/><use xlink:href="#L1_8" x="350" y="0"/><use xlink:href="#L1_8" x="-350" y="350"/><use xlink:href="#L1_8" x="0" y="350"/><use xlink:href="#L1_8" x="350" y="350"/></pattern><rect x="0" y="0" width="100%" height="100%" fill="url(#pattern_L1_8)"/></g><g fi:class="KUsePattern"><pattern id="pattern_L1_9" width="350" height="350" patternUnits="userSpaceOnUse"><use xlink:href="#L1_9" x="-350" y="-350"/><use xlink:href="#L1_9" x="0" y="-350"/><use xlink:href="#L1_9" x="350" y="-350"/><use xlink:href="#L1_9" x="-350" y="0"/><use xlink:href="#L1_9" x="0" y="0"/><use xlink:href="#L1_9" x="350" y="0"/><use xlink:href="#L1_9" x="-350" y="350"/><use xlink:href="#L1_9" x="0" y="350"/><use xlink:href="#L1_9" x="350" y="350"/></pattern><rect x="0" y="0" width="100%" height="100%" fill="url(#pattern_L1_9)"/></g><g fi:class="KUsePattern"><pattern id="pattern_L1_10" width="350" height="350" patternUnits="userSpaceOnUse"><use xlink:href="#L1_10" x="-350" y="-350"/><use xlink:href="#L1_10" x="0" y="-350"/><use xlink:href="#L1_10" x="350" y="-350"/><use xlink:href="#L1_10" x="-350" y="0"/><use xlink:href="#L1_10" x="0" y="0"/><use xlink:href="#L1_10" x="350" y="0"/><use xlink:href="#L1_10" x="-350" y="350"/><use xlink:href="#L1_10" x="0" y="350"/><use xlink:href="#L1_10" x="350" y="350"/></pattern><rect x="0" y="0" width="100%" height="100%" fill="url(#pattern_L1_10)"/></g><g fi:class="KUsePattern"><pattern id="pattern_L1_11" width="350" height="350" patternUnits="userSpaceOnUse"><use xlink:href="#L1_11" x="-350" y="-350"/><use xlink:href="#L1_11" x="0" y="-350"/><use xlink:href="#L1_11" x="350" y="-350"/><use xlink:href="#L1_11" x="-350" y="0"/><use xlink:href="#L1_11" x="0" y="0"/><use xlink:href="#L1_11" x="350" y="0"/><use xlink:href="#L1_11" x="-350" y="350"/><use xlink:href="#L1_11" x="0" y="350"/><use xlink:href="#L1_11" x="350" y="350"/></pattern><rect x="0" y="0" width="100%" height="100%" fill="url(#pattern_L1_11)"/></g><g fi:class="KUsePattern"><pattern id="pattern_L1_12" width="350" height="350" patternUnits="userSpaceOnUse"><use xlink:href="#L1_12" x="-350" y="-350"/><use xlink:href="#L1_12" x="0" y="-350"/><use xlink:href="#L1_12" x="350" y="-350"/><use xlink:href="#L1_12" x="-350" y="0"/><use xlink:href="#L1_12" x="0" y="0"/><use xlink:href="#L1_12" x="350" y="0"/><use xlink:href="#L1_12" x="-350" y="350"/><use xlink:href="#L1_12" x="0" y="350"/><use xlink:href="#L1_12" x="350" y="350"/></pattern><rect x="0" y="0" width="100%" height="100%" fill="url(#pattern_L1_12)"/></g><g fi:class="KUsePattern"><pattern id="pattern_L1_15" width="350" height="350" patternUnits="userSpaceOnUse"><use xlink:href="#L1_15" x="-350" y="-350"/><use xlink:href="#L1_15" x="0" y="-350"/><use xlink:href="#L1_15" x="350" y="-350"/><use xlink:href="#L1_15" x="-350" y="0"/><use xlink:href="#L1_15" x="0" y="0"/><use xlink:href="#L1_15" x="350" y="0"/><use xlink:href="#L1_15" x="-350" y="350"/><use xlink:href="#L1_15" x="0" y="350"/><use xlink:href="#L1_15" x="350" y="350"/></pattern><rect x="0" y="0" width="100%" height="100%" fill="url(#pattern_L1_15)"/></g></svg>