<svg width="57" height="51" viewBox="0 0 57 51" fill="none" xmlns="http://www.w3.org/2000/svg">
<path d="M25.6432 21.2414C26.2484 21.2685 26.8668 21.2881 27.4928 21.2881C28.1255 21.2881 28.7505 21.2751 29.3634 21.2414C28.7505 22.023 28.1453 22.7145 27.505 23.3735L27.5138 23.3648C26.8767 22.7134 26.2649 22.0208 25.6883 21.3L25.6432 21.2414ZM19.3735 20.3729C20.5652 20.6715 22.0187 20.9255 23.502 21.0818L23.6461 21.0938C24.5539 22.3237 25.4715 23.406 26.4563 24.4243L26.4442 24.4113C25.0017 25.9995 23.0552 27.1154 20.8535 27.516L20.7929 27.5247C20.7885 27.5247 20.7841 27.5247 20.7797 27.5247C20.5069 27.5247 20.2494 27.4585 20.0238 27.3412L20.0326 27.3456C19.1171 26.8299 18.7199 24.8575 19.0291 22.3226C19.1028 21.6984 19.2239 21.0417 19.3724 20.3719L19.3735 20.3729ZM35.6397 20.3588C35.7695 20.8734 35.8917 21.5291 35.9786 22.1956L35.9885 22.289C36.3043 24.8227 35.9148 26.793 35.007 27.3195C34.8045 27.4303 34.5625 27.4954 34.305 27.4954C34.2797 27.4954 34.2544 27.4943 34.2291 27.4932H34.2324C31.9734 27.0861 30.028 25.9778 28.5888 24.4091L28.5811 24.4004C29.5483 23.3984 30.4593 22.3183 31.2945 21.1817L31.3583 21.0905C32.9824 20.9233 34.4381 20.665 35.8565 20.3122L35.6397 20.3577V20.3588ZM20.6598 16.3075C20.9349 16.8394 21.2232 17.3692 21.5401 17.9011C21.8562 18.4301 22.1794 18.9469 22.5095 19.4513C21.5544 19.3134 20.6323 19.1397 19.7509 18.9281C19.9985 18.0737 20.3088 17.189 20.6587 16.3053L20.6598 16.3075ZM34.3347 16.2803C34.6989 17.1716 35.0081 18.0607 35.2645 18.9226C34.3842 19.1354 33.4544 19.3156 32.4927 19.4513C32.8228 18.9422 33.1529 18.4178 33.4621 17.8805C33.7713 17.3518 34.0607 16.8112 34.3369 16.2793L34.3347 16.2803ZM18.2776 10.4736C18.7573 12.0781 19.2723 13.4199 19.872 14.7139L19.7894 14.5163C19.2767 15.6073 18.7694 16.9415 18.3535 18.3147L18.2963 18.5372C17.5195 18.3017 16.8945 18.0705 16.286 17.811L16.4125 17.8588C14.0314 16.8589 12.4909 15.5443 12.4909 14.5022C12.4909 13.46 14.0314 12.1389 16.4125 11.1434C16.9902 10.8992 17.624 10.6788 18.2776 10.4736ZM36.696 10.4682C37.3617 10.6712 37.9944 10.8981 38.5864 11.1434C40.9675 12.1476 42.508 13.46 42.508 14.5022C42.5014 15.5443 40.9609 16.8622 38.5798 17.8598C38.0021 18.1041 37.3694 18.3234 36.7169 18.5286C36.2328 16.9187 35.7178 15.578 35.1203 14.2818L35.204 14.4859C35.7145 13.396 36.2229 12.0618 36.6377 10.6886L36.696 10.4649V10.4682ZM32.4839 9.55304C33.4401 9.69308 34.3611 9.8646 35.2425 10.0785C34.9949 10.9361 34.6857 11.8175 34.3347 12.7012C34.0596 12.1725 33.7713 11.6395 33.4544 11.1087C33.1452 10.5767 32.8151 10.0589 32.485 9.55413L32.4839 9.55304ZM22.5018 9.55304C22.1717 10.0643 21.8416 10.5876 21.5335 11.1271C21.2243 11.6558 20.9349 12.1877 20.6598 12.7197C20.2956 11.8295 19.9864 10.9426 19.73 10.0785C20.6103 9.87546 21.5379 9.69417 22.5007 9.55521L22.5018 9.55304ZM27.4995 9.20783C28.5173 9.20783 29.5307 9.25342 30.5276 9.33376C31.0858 10.1233 31.6279 10.9643 32.1538 11.8566C32.6651 12.7251 33.1317 13.6051 33.5535 14.4967C33.1298 15.3858 32.6655 16.2738 32.1604 17.1423C31.6378 18.0379 31.0975 18.8901 30.5375 19.6793C29.5362 19.765 28.5217 19.8117 27.4983 19.8117C26.4805 19.8117 25.4671 19.7639 24.4702 19.6858C23.9124 18.8966 23.3677 18.052 22.844 17.1629C22.3327 16.2945 21.8661 15.4144 21.4443 14.5228C21.8614 13.6315 22.3323 12.7414 22.8374 11.8718C23.36 10.9762 23.9003 10.1273 24.4603 9.3381C25.4616 9.25125 26.4761 9.20566 27.4995 9.20566V9.20783ZM27.4785 5.64607C28.1167 6.29741 28.7285 6.98892 29.304 7.70974L29.348 7.76727C28.7428 7.74014 28.1244 7.72168 27.4983 7.72168C26.8657 7.72168 26.2407 7.73471 25.6278 7.76727C26.2396 6.98566 26.8448 6.29415 27.4862 5.63521L27.4774 5.64389L27.4785 5.64607ZM20.7654 1.50786C23.0244 1.91604 24.9687 3.02441 26.409 4.59197L26.4167 4.60066C25.4495 5.60373 24.5385 6.68387 23.7033 7.82264L23.6395 7.91383C22.0165 8.07992 20.5608 8.33611 19.1435 8.68893L19.3592 8.64333C19.2052 7.97896 19.0907 7.33522 19.0104 6.71753C18.6946 4.1838 19.0841 2.21348 19.9919 1.68915C20.2186 1.58385 20.4837 1.51872 20.7632 1.51003H20.7665L20.7654 1.50786ZM34.2005 1.48072V1.48941C34.2148 1.48941 34.2313 1.48832 34.2489 1.48832C34.5119 1.48832 34.7594 1.55237 34.9773 1.66527L34.9685 1.66093C35.884 2.17874 36.2812 4.15015 35.972 6.68605C35.8983 7.31025 35.7772 7.96811 35.6287 8.63899C34.4348 8.3372 32.9813 8.08209 31.4981 7.92685L31.3572 7.91491C30.4483 6.68387 29.5307 5.60156 28.5459 4.5822L28.5591 4.59523C30.0016 3.01029 31.9448 1.89433 34.1421 1.49158L34.2038 1.48181L34.2005 1.48072ZM34.2071 0.00217099C31.5201 0.404919 29.194 1.69241 27.495 3.54982L27.4862 3.55959C25.7752 1.70326 23.4491 0.424459 20.8281 0.0369094L20.7665 0.0293104C20.7522 0.0293104 20.7346 0.0293104 20.717 0.0293104C20.1768 0.0293104 19.6695 0.169349 19.2305 0.414689L19.2459 0.40709C17.3555 1.48289 16.9319 4.83514 17.9079 9.04174C13.7222 10.3173 11 12.356 11 14.5043C11 16.6614 13.7365 18.7055 17.9343 19.9713C16.966 24.1942 17.3984 27.5518 19.2932 28.6266C19.7091 28.8621 20.2087 29 20.7401 29C20.7643 29 20.7885 29 20.8116 28.9989H20.8083C23.4953 28.5962 25.8214 27.3076 27.5204 25.4491L27.5292 25.4393C29.2402 27.2967 31.5663 28.5755 34.1873 28.9631L34.2489 28.9707C34.2654 28.9707 34.2863 28.9707 34.3061 28.9707C34.8431 28.9707 35.3481 28.8317 35.7849 28.5897L35.7695 28.5972C37.6588 27.5225 38.0835 24.1703 37.1075 19.9626C41.2778 18.6979 44 16.6549 44 14.5033C44 12.3462 41.2635 10.3021 37.0657 9.03305C38.034 4.81452 37.6016 1.45358 35.7068 0.377779C35.2865 0.140039 34.7825 0 34.2456 0C34.2313 0 34.217 0 34.2027 0H34.2049L34.2071 0.00217099ZM30.5661 14.5043C30.5661 16.1794 29.1896 17.5374 27.4917 17.5374C25.7939 17.5374 24.4174 16.1794 24.4174 14.5043C24.4174 12.8293 25.7939 11.4713 27.4917 11.4713C28.3412 11.4713 29.1092 11.811 29.666 12.3593C30.2228 12.9085 30.5661 13.6663 30.5661 14.5043Z" fill="#6A73FF"/>
<path d="M14.8368 38.084C14.6768 38.084 14.5528 38.04 14.4648 37.952C14.3848 37.856 14.3448 37.728 14.3448 37.568V30.044C14.3448 29.876 14.3888 29.752 14.4768 29.672C14.5648 29.584 14.6888 29.54 14.8488 29.54H17.6928C18.5968 29.54 19.2928 29.752 19.7808 30.176C20.2688 30.6 20.5128 31.204 20.5128 31.988C20.5128 32.484 20.4008 32.916 20.1768 33.284C19.9608 33.644 19.6408 33.92 19.2168 34.112C18.7928 34.296 18.2848 34.388 17.6928 34.388L17.8128 34.232H18.0528C18.3648 34.232 18.6368 34.312 18.8688 34.472C19.1008 34.632 19.3128 34.888 19.5048 35.24L20.6568 37.388C20.7208 37.5 20.7488 37.612 20.7408 37.724C20.7408 37.828 20.7048 37.916 20.6328 37.988C20.5608 38.052 20.4568 38.084 20.3208 38.084C20.1848 38.084 20.0728 38.052 19.9848 37.988C19.8968 37.924 19.8208 37.832 19.7568 37.712L18.4488 35.288C18.2648 34.944 18.0528 34.716 17.8128 34.604C17.5728 34.484 17.2568 34.424 16.8648 34.424H15.3288V37.568C15.3288 37.728 15.2888 37.856 15.2088 37.952C15.1288 38.04 15.0048 38.084 14.8368 38.084ZM15.3288 33.644H17.5488C18.2048 33.644 18.7008 33.508 19.0368 33.236C19.3728 32.956 19.5408 32.54 19.5408 31.988C19.5408 31.452 19.3728 31.048 19.0368 30.776C18.7008 30.496 18.2048 30.356 17.5488 30.356H15.3288V33.644ZM24.7392 38.108C24.1232 38.108 23.5912 37.988 23.1432 37.748C22.7032 37.5 22.3592 37.152 22.1112 36.704C21.8712 36.256 21.7512 35.72 21.7512 35.096C21.7512 34.488 21.8712 33.96 22.1112 33.512C22.3512 33.056 22.6792 32.7 23.0952 32.444C23.5192 32.188 24.0072 32.06 24.5592 32.06C24.9512 32.06 25.3032 32.128 25.6152 32.264C25.9272 32.392 26.1912 32.58 26.4072 32.828C26.6312 33.076 26.7992 33.376 26.9112 33.728C27.0312 34.08 27.0912 34.476 27.0912 34.916C27.0912 35.044 27.0552 35.14 26.9832 35.204C26.9112 35.26 26.8072 35.288 26.6712 35.288H22.4952V34.652H26.4432L26.2512 34.808C26.2512 34.376 26.1872 34.012 26.0592 33.716C25.9312 33.412 25.7432 33.18 25.4952 33.02C25.2552 32.86 24.9512 32.78 24.5832 32.78C24.1752 32.78 23.8272 32.876 23.5392 33.068C23.2592 33.252 23.0472 33.512 22.9032 33.848C22.7592 34.176 22.6872 34.56 22.6872 35V35.072C22.6872 35.808 22.8632 36.368 23.2152 36.752C23.5752 37.136 24.0832 37.328 24.7392 37.328C25.0112 37.328 25.2792 37.292 25.5432 37.22C25.8152 37.148 26.0792 37.028 26.3352 36.86C26.4472 36.788 26.5472 36.756 26.6352 36.764C26.7312 36.764 26.8072 36.792 26.8632 36.848C26.9192 36.896 26.9552 36.96 26.9712 37.04C26.9952 37.112 26.9872 37.192 26.9472 37.28C26.9152 37.368 26.8472 37.444 26.7432 37.508C26.4792 37.7 26.1672 37.848 25.8072 37.952C25.4472 38.056 25.0912 38.108 24.7392 38.108ZM30.3339 38.108C29.9339 38.108 29.5739 38.032 29.2539 37.88C28.9419 37.72 28.6939 37.504 28.5099 37.232C28.3259 36.96 28.2339 36.656 28.2339 36.32C28.2339 35.888 28.3419 35.548 28.5579 35.3C28.7819 35.052 29.1459 34.876 29.6499 34.772C30.1619 34.668 30.8579 34.616 31.7379 34.616H32.2779V35.252H31.7499C31.1019 35.252 30.5899 35.284 30.2139 35.348C29.8459 35.404 29.5859 35.504 29.4339 35.648C29.2899 35.792 29.2179 35.996 29.2179 36.26C29.2179 36.588 29.3299 36.856 29.5539 37.064C29.7859 37.272 30.0979 37.376 30.4899 37.376C30.8099 37.376 31.0899 37.3 31.3299 37.148C31.5779 36.996 31.7699 36.788 31.9059 36.524C32.0499 36.26 32.1219 35.956 32.1219 35.612V34.244C32.1219 33.748 32.0219 33.392 31.8219 33.176C31.6219 32.952 31.2939 32.84 30.8379 32.84C30.5579 32.84 30.2779 32.876 29.9979 32.948C29.7179 33.02 29.4219 33.136 29.1099 33.296C28.9979 33.352 28.9019 33.372 28.8219 33.356C28.7419 33.332 28.6779 33.288 28.6299 33.224C28.5819 33.16 28.5539 33.088 28.5459 33.008C28.5379 32.92 28.5539 32.836 28.5939 32.756C28.6419 32.676 28.7139 32.612 28.8099 32.564C29.1619 32.388 29.5099 32.26 29.8539 32.18C30.1979 32.1 30.5259 32.06 30.8379 32.06C31.3419 32.06 31.7579 32.144 32.0859 32.312C32.4139 32.472 32.6579 32.72 32.8179 33.056C32.9779 33.384 33.0579 33.808 33.0579 34.328V37.58C33.0579 37.74 33.0179 37.864 32.9379 37.952C32.8659 38.04 32.7579 38.084 32.6139 38.084C32.4619 38.084 32.3459 38.04 32.2659 37.952C32.1859 37.864 32.1459 37.74 32.1459 37.58V36.644H32.2539C32.1899 36.948 32.0659 37.208 31.8819 37.424C31.7059 37.64 31.4859 37.808 31.2219 37.928C30.9579 38.048 30.6619 38.108 30.3339 38.108ZM37.3332 38.108C36.7492 38.108 36.2452 37.98 35.8212 37.724C35.3972 37.468 35.0692 37.112 34.8372 36.656C34.6132 36.192 34.5012 35.656 34.5012 35.048C34.5012 34.584 34.5652 34.168 34.6932 33.8C34.8212 33.432 35.0092 33.12 35.2572 32.864C35.5052 32.6 35.8012 32.4 36.1452 32.264C36.4972 32.128 36.8932 32.06 37.3332 32.06C37.6212 32.06 37.9212 32.104 38.2332 32.192C38.5452 32.28 38.8292 32.432 39.0852 32.648C39.1652 32.704 39.2172 32.772 39.2412 32.852C39.2652 32.932 39.2652 33.012 39.2412 33.092C39.2172 33.164 39.1772 33.228 39.1212 33.284C39.0652 33.332 38.9932 33.36 38.9052 33.368C38.8252 33.376 38.7412 33.348 38.6532 33.284C38.4452 33.124 38.2332 33.012 38.0172 32.948C37.8012 32.884 37.5932 32.852 37.3932 32.852C37.0812 32.852 36.8092 32.904 36.5772 33.008C36.3452 33.104 36.1492 33.244 35.9892 33.428C35.8292 33.612 35.7052 33.84 35.6172 34.112C35.5372 34.384 35.4972 34.7 35.4972 35.06C35.4972 35.756 35.6612 36.308 35.9892 36.716C36.3172 37.116 36.7852 37.316 37.3932 37.316C37.5932 37.316 37.7972 37.284 38.0052 37.22C38.2212 37.156 38.4372 37.044 38.6532 36.884C38.7412 36.82 38.8252 36.792 38.9052 36.8C38.9852 36.808 39.0532 36.84 39.1092 36.896C39.1652 36.944 39.2012 37.008 39.2172 37.088C39.2412 37.168 39.2412 37.248 39.2172 37.328C39.1932 37.4 39.1412 37.464 39.0612 37.52C38.8052 37.728 38.5252 37.88 38.2212 37.976C37.9172 38.064 37.6212 38.108 37.3332 38.108ZM42.7559 38.108C42.2999 38.108 41.9159 38.028 41.6039 37.868C41.2999 37.7 41.0719 37.46 40.9199 37.148C40.7679 36.828 40.6919 36.44 40.6919 35.984V32.924H39.8879C39.7519 32.924 39.6479 32.892 39.5759 32.828C39.5039 32.756 39.4679 32.66 39.4679 32.54C39.4679 32.42 39.5039 32.328 39.5759 32.264C39.6479 32.2 39.7519 32.168 39.8879 32.168H40.6919V30.788C40.6919 30.628 40.7359 30.508 40.8239 30.428C40.9119 30.34 41.0319 30.296 41.1839 30.296C41.3359 30.296 41.4519 30.34 41.5319 30.428C41.6199 30.508 41.6639 30.628 41.6639 30.788V32.168H43.1759C43.3119 32.168 43.4159 32.2 43.4879 32.264C43.5599 32.328 43.5959 32.42 43.5959 32.54C43.5959 32.66 43.5599 32.756 43.4879 32.828C43.4159 32.892 43.3119 32.924 43.1759 32.924H41.6639V35.888C41.6639 36.344 41.7599 36.692 41.9519 36.932C42.1439 37.164 42.4559 37.28 42.8879 37.28C43.0399 37.28 43.1679 37.264 43.2719 37.232C43.3839 37.2 43.4759 37.184 43.5479 37.184C43.6199 37.176 43.6799 37.2 43.7279 37.256C43.7759 37.312 43.7999 37.408 43.7999 37.544C43.7999 37.64 43.7799 37.728 43.7399 37.808C43.7079 37.888 43.6479 37.944 43.5599 37.976C43.4639 38.008 43.3359 38.036 43.1759 38.06C43.0239 38.092 42.8839 38.108 42.7559 38.108Z" fill="#6A73FF"/>
<path d="M12.6214 49.084C12.4694 49.084 12.3534 49.044 12.2734 48.964C12.1934 48.876 12.1534 48.752 12.1534 48.592V40.96C12.1534 40.8 12.1934 40.676 12.2734 40.588C12.3534 40.5 12.4574 40.456 12.5854 40.456C12.7134 40.456 12.8054 40.48 12.8614 40.528C12.9254 40.568 12.9974 40.644 13.0774 40.756L18.3094 47.728H18.0214V40.936C18.0214 40.784 18.0614 40.668 18.1414 40.588C18.2214 40.5 18.3374 40.456 18.4894 40.456C18.6334 40.456 18.7414 40.5 18.8134 40.588C18.8934 40.668 18.9334 40.784 18.9334 40.936V48.604C18.9334 48.756 18.8974 48.876 18.8254 48.964C18.7614 49.044 18.6654 49.084 18.5374 49.084C18.4174 49.084 18.3214 49.06 18.2494 49.012C18.1774 48.964 18.1014 48.888 18.0214 48.784L12.8014 41.812H13.0774V48.592C13.0774 48.752 13.0374 48.876 12.9574 48.964C12.8774 49.044 12.7654 49.084 12.6214 49.084ZM22.7402 49.108C22.3402 49.108 21.9802 49.032 21.6602 48.88C21.3482 48.72 21.1002 48.504 20.9162 48.232C20.7322 47.96 20.6402 47.656 20.6402 47.32C20.6402 46.888 20.7482 46.548 20.9642 46.3C21.1882 46.052 21.5522 45.876 22.0562 45.772C22.5682 45.668 23.2642 45.616 24.1442 45.616H24.6842V46.252H24.1562C23.5082 46.252 22.9962 46.284 22.6202 46.348C22.2522 46.404 21.9922 46.504 21.8402 46.648C21.6962 46.792 21.6242 46.996 21.6242 47.26C21.6242 47.588 21.7362 47.856 21.9602 48.064C22.1922 48.272 22.5042 48.376 22.8962 48.376C23.2162 48.376 23.4962 48.3 23.7362 48.148C23.9842 47.996 24.1762 47.788 24.3122 47.524C24.4562 47.26 24.5282 46.956 24.5282 46.612V45.244C24.5282 44.748 24.4282 44.392 24.2282 44.176C24.0282 43.952 23.7002 43.84 23.2442 43.84C22.9642 43.84 22.6842 43.876 22.4042 43.948C22.1242 44.02 21.8282 44.136 21.5162 44.296C21.4042 44.352 21.3082 44.372 21.2282 44.356C21.1482 44.332 21.0842 44.288 21.0362 44.224C20.9882 44.16 20.9602 44.088 20.9522 44.008C20.9442 43.92 20.9602 43.836 21.0002 43.756C21.0482 43.676 21.1202 43.612 21.2162 43.564C21.5682 43.388 21.9162 43.26 22.2602 43.18C22.6042 43.1 22.9322 43.06 23.2442 43.06C23.7482 43.06 24.1642 43.144 24.4922 43.312C24.8202 43.472 25.0642 43.72 25.2242 44.056C25.3842 44.384 25.4642 44.808 25.4642 45.328V48.58C25.4642 48.74 25.4242 48.864 25.3442 48.952C25.2722 49.04 25.1642 49.084 25.0202 49.084C24.8682 49.084 24.7522 49.04 24.6722 48.952C24.5922 48.864 24.5522 48.74 24.5522 48.58V47.644H24.6602C24.5962 47.948 24.4722 48.208 24.2882 48.424C24.1122 48.64 23.8922 48.808 23.6282 48.928C23.3642 49.048 23.0682 49.108 22.7402 49.108ZM29.6075 49.108C29.1515 49.108 28.7675 49.028 28.4555 48.868C28.1515 48.7 27.9235 48.46 27.7715 48.148C27.6195 47.828 27.5435 47.44 27.5435 46.984V43.924H26.7395C26.6035 43.924 26.4995 43.892 26.4275 43.828C26.3555 43.756 26.3195 43.66 26.3195 43.54C26.3195 43.42 26.3555 43.328 26.4275 43.264C26.4995 43.2 26.6035 43.168 26.7395 43.168H27.5435V41.788C27.5435 41.628 27.5875 41.508 27.6755 41.428C27.7635 41.34 27.8835 41.296 28.0355 41.296C28.1875 41.296 28.3035 41.34 28.3835 41.428C28.4715 41.508 28.5155 41.628 28.5155 41.788V43.168H30.0275C30.1635 43.168 30.2675 43.2 30.3395 43.264C30.4115 43.328 30.4475 43.42 30.4475 43.54C30.4475 43.66 30.4115 43.756 30.3395 43.828C30.2675 43.892 30.1635 43.924 30.0275 43.924H28.5155V46.888C28.5155 47.344 28.6115 47.692 28.8035 47.932C28.9955 48.164 29.3075 48.28 29.7395 48.28C29.8915 48.28 30.0195 48.264 30.1235 48.232C30.2355 48.2 30.3275 48.184 30.3995 48.184C30.4715 48.176 30.5315 48.2 30.5795 48.256C30.6275 48.312 30.6515 48.408 30.6515 48.544C30.6515 48.64 30.6315 48.728 30.5915 48.808C30.5595 48.888 30.4995 48.944 30.4115 48.976C30.3155 49.008 30.1875 49.036 30.0275 49.06C29.8755 49.092 29.7355 49.108 29.6075 49.108ZM32.0131 49.06C31.8531 49.06 31.7331 49.016 31.6531 48.928C31.5731 48.832 31.5331 48.7 31.5331 48.532V43.624C31.5331 43.456 31.5731 43.328 31.6531 43.24C31.7331 43.152 31.8531 43.108 32.0131 43.108C32.1651 43.108 32.2851 43.152 32.3731 43.24C32.4611 43.328 32.5051 43.456 32.5051 43.624V48.532C32.5051 48.7 32.4611 48.832 32.3731 48.928C32.2931 49.016 32.1731 49.06 32.0131 49.06ZM32.0131 41.764C31.8131 41.764 31.6571 41.712 31.5451 41.608C31.4331 41.496 31.3771 41.348 31.3771 41.164C31.3771 40.972 31.4331 40.828 31.5451 40.732C31.6571 40.628 31.8131 40.576 32.0131 40.576C32.2211 40.576 32.3771 40.628 32.4811 40.732C32.5931 40.828 32.6491 40.972 32.6491 41.164C32.6491 41.348 32.5931 41.496 32.4811 41.608C32.3771 41.712 32.2211 41.764 32.0131 41.764ZM36.4942 49.084C36.3582 49.084 36.2382 49.048 36.1342 48.976C36.0302 48.896 35.9422 48.776 35.8702 48.616L33.7942 43.768C33.7382 43.648 33.7182 43.536 33.7342 43.432C33.7502 43.328 33.7982 43.244 33.8782 43.18C33.9582 43.116 34.0702 43.084 34.2142 43.084C34.3422 43.084 34.4422 43.112 34.5142 43.168C34.5862 43.224 34.6502 43.324 34.7062 43.468L36.6742 48.28H36.3502L38.3542 43.468C38.4102 43.324 38.4742 43.224 38.5462 43.168C38.6182 43.112 38.7222 43.084 38.8582 43.084C38.9862 43.084 39.0822 43.116 39.1462 43.18C39.2182 43.244 39.2582 43.328 39.2662 43.432C39.2822 43.528 39.2662 43.636 39.2182 43.756L37.1182 48.616C37.0622 48.776 36.9782 48.896 36.8662 48.976C36.7622 49.048 36.6382 49.084 36.4942 49.084ZM43.0439 49.108C42.4279 49.108 41.8959 48.988 41.4479 48.748C41.0079 48.5 40.6639 48.152 40.4159 47.704C40.1759 47.256 40.0559 46.72 40.0559 46.096C40.0559 45.488 40.1759 44.96 40.4159 44.512C40.6559 44.056 40.9839 43.7 41.3999 43.444C41.8239 43.188 42.3119 43.06 42.8639 43.06C43.2559 43.06 43.6079 43.128 43.9199 43.264C44.2319 43.392 44.4959 43.58 44.7119 43.828C44.9359 44.076 45.1039 44.376 45.2159 44.728C45.3359 45.08 45.3959 45.476 45.3959 45.916C45.3959 46.044 45.3599 46.14 45.2879 46.204C45.2159 46.26 45.1119 46.288 44.9759 46.288H40.7999V45.652H44.7479L44.5559 45.808C44.5559 45.376 44.4919 45.012 44.3639 44.716C44.2359 44.412 44.0479 44.18 43.7999 44.02C43.5599 43.86 43.2559 43.78 42.8879 43.78C42.4799 43.78 42.1319 43.876 41.8439 44.068C41.5639 44.252 41.3519 44.512 41.2079 44.848C41.0639 45.176 40.9919 45.56 40.9919 46V46.072C40.9919 46.808 41.1679 47.368 41.5199 47.752C41.8799 48.136 42.3879 48.328 43.0439 48.328C43.3159 48.328 43.5839 48.292 43.8479 48.22C44.1199 48.148 44.3839 48.028 44.6399 47.86C44.7519 47.788 44.8519 47.756 44.9399 47.764C45.0359 47.764 45.1119 47.792 45.1679 47.848C45.2239 47.896 45.2599 47.96 45.2759 48.04C45.2999 48.112 45.2919 48.192 45.2519 48.28C45.2199 48.368 45.1519 48.444 45.0479 48.508C44.7839 48.7 44.4719 48.848 44.1119 48.952C43.7519 49.056 43.3959 49.108 43.0439 49.108Z" fill="#6A73FF"/>
</svg>
