<svg width="324" height="296" viewBox="0 0 324 296" fill="none" xmlns="http://www.w3.org/2000/svg">
<path d="M320 35.7999C320.798 32.3439 320.688 28.7399 319.679 25.3393C318.67 21.9388 316.797 18.8576 314.243 16.3962C311.689 13.9348 308.541 12.1771 305.105 11.2945C301.67 10.4119 298.064 10.4344 294.64 11.3599C292.554 7.66068 289.328 4.73462 285.444 3.01794C281.559 1.30125 277.224 0.885858 273.084 1.83368C268.944 2.7815 265.221 5.04178 262.471 8.2776C259.72 11.5134 258.089 15.5515 257.82 19.7899C255.643 19.3737 253.404 19.4118 251.243 19.902C249.082 20.3922 247.045 21.3238 245.261 22.6384C243.477 23.953 241.984 25.6222 240.875 27.5412C239.767 29.4603 239.067 31.5877 238.82 33.7899C236.591 34.0244 234.53 35.0821 233.04 36.7561C231.549 38.4301 230.737 40.5999 230.762 42.841C230.787 45.0821 231.647 47.2332 233.175 48.8735C234.702 50.5138 236.786 51.5253 239.02 51.71H314.3C316.143 51.6964 317.938 51.1171 319.442 50.0504C320.945 48.9837 322.085 47.4811 322.706 45.7456C323.328 44.0102 323.402 42.1257 322.918 40.347C322.434 38.5682 321.415 36.981 320 35.7999Z" stroke="#263238" stroke-linecap="round" stroke-linejoin="round"/>
<path d="M90.64 279.15C91.4362 275.693 91.3235 272.089 90.3131 268.689C89.3027 265.289 87.429 262.208 84.8744 259.747C82.3197 257.286 79.1713 255.529 75.7358 254.646C72.3002 253.763 68.6946 253.785 65.27 254.71C63.1859 251.008 59.9603 248.079 56.0749 246.361C52.1895 244.643 47.8526 244.228 43.7118 245.177C39.5709 246.127 35.8482 248.39 33.0994 251.629C30.3506 254.868 28.7231 258.91 28.46 263.15C27.4712 262.961 26.4668 262.864 25.46 262.86C21.504 262.857 17.6856 264.312 14.7341 266.946C11.7826 269.58 9.90504 273.209 9.46002 277.14C7.23107 277.373 5.16937 278.43 3.67827 280.103C2.18717 281.776 1.37396 283.945 1.39772 286.186C1.42148 288.427 2.2805 290.579 3.80674 292.22C5.33298 293.861 7.41661 294.874 9.65001 295.06H85C86.8409 295.04 88.6314 294.457 90.1302 293.388C91.629 292.319 92.7639 290.816 93.3819 289.082C93.9999 287.348 94.0713 285.466 93.5863 283.69C93.1014 281.914 92.0836 280.329 90.67 279.15H90.64Z" stroke="#263238" stroke-linecap="round" stroke-linejoin="round"/>
</svg>
